<svg width="29" height="25" viewBox="0 0 29 25" fill="none" xmlns="http://www.w3.org/2000/svg">
<path d="M28.4062 2.88562C27.3499 3.375 26.2243 3.69937 25.0508 3.85687C26.258 3.09562 27.1795 1.89937 27.6126 0.4575C26.4871 1.16625 25.2443 1.66687 23.9198 1.94625C22.8511 0.744375 21.3278 0 19.666 0C16.4419 0 13.8463 2.76375 13.8463 6.15187C13.8463 6.63937 13.8853 7.10812 13.9812 7.55437C9.13971 7.305 4.85569 4.85437 1.97778 1.12125C1.47535 2.04187 1.18063 3.09562 1.18063 4.23C1.18063 6.36 2.21924 8.24812 3.76738 9.34125C2.83175 9.3225 1.91387 9.03562 1.13625 8.58375C1.13625 8.6025 1.13625 8.62687 1.13625 8.65125C1.13625 11.64 3.15487 14.1225 5.80198 14.6944C5.32795 14.8312 4.81131 14.8969 4.27514 14.8969C3.90231 14.8969 3.52593 14.8744 3.17262 14.7919C3.92716 17.2275 6.06828 19.0181 8.61419 19.0762C6.63286 20.7131 4.11713 21.6994 1.39368 21.6994C0.916102 21.6994 0.458051 21.6769 0 21.615C2.57964 23.3719 5.63687 24.375 8.93377 24.375C19.65 24.375 25.5088 15 25.5088 6.87375C25.5088 6.60187 25.4999 6.33937 25.4875 6.07875C26.6433 5.2125 27.6144 4.13062 28.4062 2.88562Z" fill="white"/>
</svg>
